<svg viewBox="0 0 1024 1024" xmlns="http://www.w3.org/2000/svg" width="128" height="128"><path d="M273.28 101.888c-25.514667 0.128-48.981333 6.570667-67.882667 18.688-9.472 6.144-17.92 13.824-24.277333 23.509333A62.250667 62.250667 0 0 0 170.666667 178.346667v645.290666c-0.042667 12.629333 4.096 24.618667 10.453333 34.218667 9.642667 14.506667 23.552 24.661333 39.338667 31.573333 15.573333 6.826667 33.237333 10.496 52.053333 10.666667L757.376 938.666667v-93.738667L853.333333 840.405333V85.333333l-580.053333 16.554667z m286.933333 487.68l-200.405333-15.957333 4.522667-60.202667 200.405333 15.957333-4.522667 60.202667z m89.173334-143.957333l-347.221334-28.458667 4.693334-60.245333 347.178666 28.458666-4.650666 60.245334z m151.466666 343.594666l-43.434666 2.048V239.573333l-483.669334-38.4c-15.957333-1.493333-31.573333-4.565333-40.362666-10.368a29.738667 29.738667 0 0 1-8.704-8.021333c-1.408-2.261333-1.536-3.413333-1.621334-4.437333 0.085333-1.066667 0.213333-2.133333 1.621334-4.437334 2.048-3.285333 7.68-8.32 16.384-12.074666 8.661333-3.84 20.053333-6.357333 32.682666-6.357334h0.213334l526.933333-15.018666v648.746666z"/></svg>
