<svg viewBox="0 0 1024 1024" xmlns="http://www.w3.org/2000/svg" width="128" height="128"><path d="M385.692 918.577l5.116 0.73c30.205 1.462 52.615 2.193 67.23 2.193 87.693 0 151.513-15.955 191.462-47.865 39.949-31.91 59.923-83.186 59.923-153.827 0-63.821-18.756-111.442-56.27-142.866-37.512-31.423-93.78-47.134-168.807-47.134-21.923 0-40.192 0.243-54.808 0.73-14.615 0.488-29.23 1.218-43.846 2.193v385.846z m0.731-472.808c3.898 0.487 8.77 0.853 14.615 1.096 5.847 0.244 14.372 0.366 25.577 0.366 77.95 0 135.314-15.712 172.097-47.135 36.782-31.423 55.173-80.506 55.173-147.25 0-58.462-17.052-101.82-51.154-130.077-34.103-28.256-86.474-42.384-157.116-42.384-11.692 0-30.205 0.974-55.538 2.923h-4.385l0.731 362.461zM78.77 0h449.423c110.103 0 192.923 19.609 248.462 58.827 55.539 39.218 83.308 97.8 83.308 175.75 0 58.949-18.026 108.275-54.077 147.98-36.052 39.706-89.154 68.815-159.308 87.328 85.744 1.461 152.487 23.384 200.23 65.769 47.745 42.385 71.616 100.846 71.616 175.384 0 94.514-32.397 166.981-97.192 217.404-64.795 50.424-158.09 75.635-279.885 75.635H78.77V931l88.423-8.038 24.116-23.385v-798l-24.116-21.192-88.423-7.308V0z"/></svg>
