<svg viewBox="0 0 1024 1024" xmlns="http://www.w3.org/2000/svg" width="128" height="128"><path d="M761.756098 74.926829h49.951219a49.95122 49.95122 0 0 1 49.95122 49.95122v455.130536A224.780488 224.780488 0 1 0 811.707317 1024H62.439024a49.95122 49.95122 0 0 1-49.951219-49.95122V124.878049a49.95122 49.95122 0 0 1 49.951219-49.95122h49.95122v49.95122a74.926829 74.926829 0 0 0 149.853658 0V74.926829h99.902439v49.95122a74.926829 74.926829 0 0 0 149.853659 0V74.926829h99.902439v49.95122a74.926829 74.926829 0 0 0 149.853659 0V74.926829zM137.365854 374.634146a24.97561 24.97561 0 1 0 0 49.95122h599.414634a24.97561 24.97561 0 1 0 0-49.95122H137.365854z m0 199.804878a24.97561 24.97561 0 1 0 0 49.95122h349.658536a24.97561 24.97561 0 1 0 0-49.95122H137.365854z m0 199.804878a24.97561 24.97561 0 1 0 0 49.95122h299.707317a24.97561 24.97561 0 1 0 0-49.95122H137.365854zM187.317073 0a49.95122 49.95122 0 0 1 49.95122 49.95122v74.926829a49.95122 49.95122 0 0 1-99.902439 0V49.95122a49.95122 49.95122 0 0 1 49.951219-49.95122z m624.390244 999.02439a199.804878 199.804878 0 1 1 0-399.609756 199.804878 199.804878 0 0 1 0 399.609756z m-12.487805-124.878049a87.414634 87.414634 0 1 0 0-174.829268 87.414634 87.414634 0 0 0 0 174.829268z m0-24.975609a62.439024 62.439024 0 1 1 0-124.878049 62.439024 62.439024 0 0 1 0 124.878049z m53.597659 8.841366a9.091122 9.091122 0 0 1-1.073951-1.373659c4.170927-3.121951 5.994146-4.770341 9.340878-8.092098 3.346732-3.29678 5.34478-5.794341 8.042146-9.315902 0.374634 0.249756 0.924098 0.674341 1.373658 1.098927l49.95122 49.951219a12.487805 12.487805 0 1 1-17.682732 17.682732l-49.951219-49.951219zM437.073171 0a49.95122 49.95122 0 0 1 49.951219 49.95122v74.926829a49.95122 49.95122 0 0 1-99.902439 0V49.95122a49.95122 49.95122 0 0 1 49.95122-49.95122z m249.756097 0a49.95122 49.95122 0 0 1 49.95122 49.95122v74.926829a49.95122 49.95122 0 0 1-99.902439 0V49.95122a49.95122 49.95122 0 0 1 49.951219-49.95122z" /></svg>
