<svg viewBox="0 0 1024 1024" xmlns="http://www.w3.org/2000/svg" width="128" height="128"><path d="M588.634622 24.381532H494.832171a393.565031 393.565031 0 0 0-392.407138 392.407138v134.861583s5.822357 231.979816 5.526305 313.413869c-0.263157 71.841967-15.861812 108.881369-64.986717 131.78922 0 0 105.341902 1.019735 220.749575 1.019735s217.006161 1.743418 324.920426 1.743417a393.565031 393.565031 0 0 0 392.407138-392.407138V416.78867A393.565031 393.565031 0 0 0 588.634622 24.381532z" fill="#FFFFFF"/><path d="M588.634622 1023.998026c-53.157792 0-103.684011-0.414473-157.17075-0.855261-53.677528-0.43421-109.184-0.888156-167.749676-0.888156-114.203727 0-219.933787-1.013156-220.986417-1.019735a24.381532 24.381532 0 0 1-10.06577-46.480174c38.302558-17.861808 50.670955-44.539388 50.914376-109.782683 0.289473-80.151161-5.460516-310.394139-5.526305-312.716502V416.78867A417.262354 417.262354 0 0 1 494.832171 0h93.802451A417.262354 417.262354 0 0 1 1005.423292 416.78867v190.420686a417.262354 417.262354 0 0 1-416.78867 416.78867z m-480.084601-51.026217c40.999921 0.256578 96.980076 0.519736 155.164175 0.519736 58.769624 0 114.37478 0.460525 168.15757 0.894735 53.381476 0.440789 103.80901 0.855262 156.762856 0.855261a368.440079 368.440079 0 0 0 368.025606-368.032185V416.78867a368.446658 368.446658 0 0 0-368.025606-368.025606H494.832171a368.446658 368.446658 0 0 0-368.025606 368.025606v134.552373c0.243421 9.703929 5.815778 234.308759 5.526305 313.815184-0.151315 42.697286-5.210516 79.039321-23.782849 107.815582z"/><path d="M470.81906 368.801921a24.388111 24.388111 0 0 0-34.486776 0l-34.170987 34.177565-34.170987-34.177565a24.381532 24.381532 0 0 0-34.486775 34.486775l34.177566 34.170987-34.177566 34.170987a24.381532 24.381532 0 0 0 34.486775 34.486776l34.170987-34.177566 34.170987 34.177566a24.381532 24.381532 0 0 0 34.486776-34.486776l-34.177566-34.170987L470.81906 403.288696a24.381532 24.381532 0 0 0 0-34.486775zM774.318475 437.459683l34.170986-34.170987a24.381532 24.381532 0 0 0-34.473617-34.486775l-34.177566 34.177565-34.177566-34.177565a24.381532 24.381532 0 0 0-34.473618 34.486775l34.170987 34.170987-34.170987 34.170987a24.381532 24.381532 0 1 0 34.473618 34.486776l34.177566-34.177566 34.177566 34.177566a24.381532 24.381532 0 0 0 34.473617-34.486776zM571.035972 796.024782a89.519564 89.519564 0 0 1-89.420881-89.414302v-33.940724a89.414301 89.414301 0 1 1 178.835182 0v33.940724a89.512985 89.512985 0 0 1-89.414301 89.414302z m0-166.716784a43.420969 43.420969 0 0 0-43.368338 43.361758v33.940724a43.361759 43.361759 0 1 0 86.730096 0v-33.940724a43.41439 43.41439 0 0 0-43.361758-43.361758z"/></svg>
