<svg viewBox="0 0 1024 1024" xmlns="http://www.w3.org/2000/svg" width="128" height="128"><path d="M749.078057 62.485236h-68.892916a77.637838 77.637838 0 0 0-152.289606 0h-67.186591a77.637838 77.637838 0 0 0-152.289605 0h-67.399882a77.637838 77.637838 0 0 0-151.223151 0H20.050226a15.570226 15.570226 0 0 0-15.570226 15.356935v930.587603a15.570226 15.570226 0 0 0 15.570226 15.570226h729.027831a15.570226 15.570226 0 0 0 15.570226-15.570226V77.842171a15.570226 15.570226 0 0 0-15.570226-15.356935z m-145.037719-31.140452a46.710677 46.710677 0 0 1 43.937897 31.140452h-87.662504a46.710677 46.710677 0 0 1 43.724607-31.140452z m-219.476196 0a46.710677 46.710677 0 0 1 43.724606 31.140452h-87.662504a46.710677 46.710677 0 0 1 43.937898-31.140452z m-219.689487 0a46.710677 46.710677 0 0 1 43.937897 31.140452H121.150048a46.710677 46.710677 0 0 1 43.724607-31.140452z m568.633177 961.728055H35.407161V93.412396H89.796306a77.851129 77.851129 0 0 0 75.078349 62.280904 15.570226 15.570226 0 0 0 0-31.140452 46.497387 46.497387 0 0 1-43.724607-31.140452h187.269291a77.851129 77.851129 0 0 0 76.144803 62.280904 15.570226 15.570226 0 0 0 0-31.140452 46.710677 46.710677 0 0 1-43.937898-31.140452h187.269291a77.851129 77.851129 0 0 0 76.144803 62.280904 15.570226 15.570226 0 1 0 0-31.140452 46.497387 46.497387 0 0 1-43.724607-31.140452h173.192101zM1018.251002 139.483201a15.570226 15.570226 0 0 0 0-4.905687v-1.279745L951.277702 10.442289a15.570226 15.570226 0 0 0-27.301218 0L857.643056 132.444606v1.279745a15.783517 15.783517 0 0 0 0 4.905687v771.899276a15.570226 15.570226 0 0 0 15.570226 15.570225h13.650609v82.330235a15.570226 15.570226 0 0 0 15.570226 15.570226h72.092278a15.570226 15.570226 0 0 0 15.570226-15.570226v-82.330235h13.650609a15.570226 15.570226 0 0 0 15.570225-15.570225V139.483201zM973.459941 896.025542h-21.329076v-198.360411a25.594892 25.594892 0 1 0-30.927161 0V896.025542h-33.48665V432.544711h99.606787V896.025542z m13.650609-648.617214h-99.393496V155.266718h99.606787z m0 30.927161v46.497386h-99.393496V277.482326z m-99.606787 124.135225v-47.35055h99.606787v46.497386z m50.12333-351.929761l39.458791 73.798604h-78.917583z m21.329076 942.318595h-42.01828v-66.760009h40.951826z"/><path d="M275.999143 274.922837h217.129997a15.570226 15.570226 0 0 0 0-30.927161H275.999143a15.570226 15.570226 0 1 0 0 30.927161zM601.694139 362.798631H167.434144a15.570226 15.570226 0 1 0 0 31.140452H601.694139A15.570226 15.570226 0 1 0 601.694139 362.798631zM601.694139 483.307913H167.434144a15.570226 15.570226 0 0 0 0 31.140452H601.694139a15.570226 15.570226 0 0 0 0-31.140452zM601.694139 603.177323H167.434144a15.570226 15.570226 0 0 0 0 31.140451H601.694139a15.570226 15.570226 0 0 0 0-31.140451zM601.694139 723.686604H167.434144a15.570226 15.570226 0 1 0 0 30.927161H601.694139a15.570226 15.570226 0 1 0 0-30.927161zM601.694139 843.129432h-154.422513a15.570226 15.570226 0 0 0 0 30.927161H601.694139a15.570226 15.570226 0 1 0 0-30.927161z"/></svg>
